<svg xmlns="http://www.w3.org/2000/svg" viewBox="0 0 256 256">
  <defs>
    <linearGradient id="g" x1="0" x2="1" y1="0" y2="1">
      <stop offset="0%" stop-color="#3C873A" />
      <stop offset="100%" stop-color="#68A063" />
    </linearGradient>
  </defs>
  <rect width="256" height="256" rx="32" fill="url(#g)" />
  <path fill="#fff" d="M128 40l78 45v86l-78 45-78-45V85l78-45zm-58.3 54.2v63.6L128 199l58.3-41.2V94.2L128 53l-58.3 41.2zM142 161.5c11.2 0 20.3-9.1 20.3-20.3 0-11.2-9.1-20.3-20.3-20.3-3.5 0-6.8.9-9.7 2.5l-.2-.1 9.9-25.7h-14.3l-15.5 40.1c-1.3 3.3-2 6.9-2 10.7 0 16 13 29 29 29z" />
</svg>
